<?xml version="1.0" standalone="no"?><!DOCTYPE svg PUBLIC "-//W3C//DTD SVG 1.1//EN" "http://www.w3.org/Graphics/SVG/1.1/DTD/svg11.dtd"><svg t="1561182108078" class="icon" viewBox="0 0 1024 1024" version="1.1" xmlns="http://www.w3.org/2000/svg" p-id="8698" xmlns:xlink="http://www.w3.org/1999/xlink" width="32" height="32"><defs><style type="text/css"></style></defs><path d="M891.52 369.472h-20.352a355.008 355.008 0 0 0-20.032-48.128l14.528-14.464a95.36 95.36 0 0 0 28.096-67.904 95.616 95.616 0 0 0-28.096-67.84l-22.72-22.656c-36.352-36.224-99.456-36.288-135.808 0l-14.464 14.464a346.496 346.496 0 0 0-48.192-20.032v-20.416c0-52.928-43.072-96-95.936-96h-32c-52.928 0-96 43.072-96 96v20.416c-16.512 5.44-32.576 12.16-48.192 20.032l-14.464-14.528c-36.352-36.224-99.584-36.16-135.744 0l-22.656 22.656a96.128 96.128 0 0 0 0 135.808l14.528 14.528a356.288 356.288 0 0 0-20.032 48.064h-20.48c-52.928 0-96 43.136-96 96v32c0 52.928 43.072 96 96 96h20.416c5.44 16.512 12.16 32.576 20.032 48.192l-14.528 14.528a96.192 96.192 0 0 0 0 135.744l22.656 22.656c36.288 36.288 99.584 36.224 135.744 0l14.528-14.528c15.616 7.872 31.68 14.592 48.192 20.032v20.416c0 52.928 43.072 96 96 96h32c52.864 0 95.936-43.072 95.936-96v-20.416a358.4 358.4 0 0 0 48.128-20.032l14.592 14.592c36.16 36.16 99.328 36.224 135.744 0l22.656-22.656a96.256 96.256 0 0 0 0-135.808l-14.528-14.528c7.872-15.616 14.656-31.68 20.032-48.192h20.416c52.864 0 95.936-43.072 95.936-96v-32a96.128 96.128 0 0 0-95.936-96z m32 128.064a32 32 0 0 1-31.936 32h-44.352a31.936 31.936 0 0 0-30.976 24.064c-6.848 27.008-17.664 53.12-32.192 77.376a32 32 0 0 0 4.864 38.976l31.424 31.424a32.192 32.192 0 0 1 0 45.312l-22.656 22.656a32.96 32.96 0 0 1-45.248 0l-31.488-31.488a32 32 0 0 0-38.976-4.864 291.84 291.84 0 0 1-77.376 32.192 32.064 32.064 0 0 0-24.128 30.976v44.352a32 32 0 0 1-31.936 32h-32a32 32 0 0 1-32-32v-44.352a31.936 31.936 0 0 0-24.064-30.976 287.744 287.744 0 0 1-77.312-32.256 32.256 32.256 0 0 0-39.04 4.864l-31.488 31.488a32.832 32.832 0 0 1-45.248 0l-22.656-22.656a32 32 0 0 1 0-45.248l31.488-31.488a32 32 0 0 0 4.864-38.976A288.256 288.256 0 0 1 248.96 553.6a32.128 32.128 0 0 0-31.04-24.128h-44.352a32 32 0 0 1-32-32v-32c0-17.6 14.4-32 32-32h44.352a31.936 31.936 0 0 0 30.976-24.128 293.76 293.76 0 0 1 32.192-77.312 31.872 31.872 0 0 0-4.864-38.912l-31.488-31.488a32 32 0 0 1 0-45.312l22.656-22.656a32.832 32.832 0 0 1 45.248 0l31.488 31.488a32 32 0 0 0 39.04 4.864 290.56 290.56 0 0 1 77.312-32.192 31.936 31.936 0 0 0 24.064-30.976v-44.352a32 32 0 0 1 32-32h32a32 32 0 0 1 31.936 32v44.352c0 14.656 9.92 27.392 24.128 30.976 26.88 6.848 52.928 17.664 77.312 32.192a32.064 32.064 0 0 0 38.976-4.864l31.424-31.424a32.704 32.704 0 0 1 45.312 0l22.656 22.656a31.872 31.872 0 0 1 0 45.248l-31.488 31.488a32 32 0 0 0-4.864 39.04c14.528 24.256 25.344 50.24 32.256 77.312a32 32 0 0 0 30.976 24.064h44.288c17.6 0 32 14.4 32 32v32z" p-id="8699"></path><path d="M532.544 274.56a207.232 207.232 0 0 0-206.976 206.976 207.232 207.232 0 0 0 206.976 206.976 207.232 207.232 0 0 0 207.04-206.976A207.296 207.296 0 0 0 532.544 274.56z m0 349.952c-78.848 0-142.976-64.128-142.976-142.976S453.696 338.56 532.544 338.56s143.04 64.128 143.04 142.976-64.192 142.976-143.04 142.976z" p-id="8700"></path></svg>