<?xml version="1.0" standalone="no"?><!DOCTYPE svg PUBLIC "-//W3C//DTD SVG 1.1//EN" "http://www.w3.org/Graphics/SVG/1.1/DTD/svg11.dtd"><svg t="1561182082687" class="icon" viewBox="0 0 1024 1024" version="1.1" xmlns="http://www.w3.org/2000/svg" p-id="7884" xmlns:xlink="http://www.w3.org/1999/xlink" width="32" height="32"><defs><style type="text/css"></style></defs><path d="M704 192V128h-64c0-70.4-57.6-128-128-128S384 57.6 384 128H320v64H128v832h768V192h-192zM384 192h64V128c0-38.4 25.6-64 64-64s64 25.6 64 64v64h64v64H384V192z m448 768H192V256h128v64h384V256h128v704z" p-id="7885"></path><path d="M320 448h384v64H320zM320 576h384v64H320zM320 704h384v64H320z" p-id="7886"></path></svg>