<?xml version="1.0" standalone="no"?><!DOCTYPE svg PUBLIC "-//W3C//DTD SVG 1.1//EN" "http://www.w3.org/Graphics/SVG/1.1/DTD/svg11.dtd"><svg t="1560223166917" class="icon" style="" viewBox="0 0 1024 1024" version="1.1" xmlns="http://www.w3.org/2000/svg" p-id="11031" xmlns:xlink="http://www.w3.org/1999/xlink" width="32" height="32"><defs><style type="text/css"></style></defs><path d="M560.91 498.24a36 36 0 0 0-36-36H433v-54.67h91.91a36 36 0 0 0 0-72h-63l69.44-82.36a36 36 0 0 0-55.05-46.42l-79.27 94-79.27-94a36 36 0 0 0-55.05 46.42l69.44 82.36h-63a36 36 0 1 0 0 72H361v54.67h-91.91a36 36 0 1 0 0 72H361V610a36 36 0 0 0 72 0v-75.76h91.91a36 36 0 0 0 36-36zM420.16 887.15h-249a36.11 36.11 0 0 1-36-36v-679a36.11 36.11 0 0 1 36-36h605a36.11 36.11 0 0 1 36 36v214a36 36 0 0 0 72 0v-250a72.21 72.21 0 0 0-72-72h-677a72.21 72.21 0 0 0-72 72v751a72.21 72.21 0 0 0 72 72h285a36 36 0 0 0 0-72z m100.68-99.3a37.44 37.44 0 0 1 10-26l136-135q11-11 26-11a35.85 35.85 0 0 1 36 36q0 15-11 26l-74 74h281a36 36 0 1 1 0 72h-281l74 74a35.48 35.48 0 0 1 11 26 35.85 35.85 0 0 1-36 36q-15 0-26-11l-136-135a37.48 37.48 0 0 1-10-26z" p-id="11032"></path></svg>