<?xml version="1.0" standalone="no"?><!DOCTYPE svg PUBLIC "-//W3C//DTD SVG 1.1//EN" "http://www.w3.org/Graphics/SVG/1.1/DTD/svg11.dtd"><svg t="1560231163113" class="icon" style="" viewBox="0 0 1024 1024" version="1.1" xmlns="http://www.w3.org/2000/svg" p-id="13949" xmlns:xlink="http://www.w3.org/1999/xlink" width="32" height="32"><defs><style type="text/css"></style></defs><path d="M984.998 301.001q-39-91-105-157t-157.5-105A483.48 483.48 0 0 0 531 0.002v492h493a479.92 479.92 0 0 0-39-191zM603 420.001V78.181a413.71 413.71 0 0 1 91.27 27.05c52.2 22.26 97.56 52.43 134.82 89.68s67.47 82.52 89.73 134.46a407.75 407.75 0 0 1 27 90.63z m-136.28-326H465C208.19 94.001 0 302.191 0 559.001S208.19 1024 465 1024c256.569 0 464.609-207.8 464.999-464.28h-463.28z m384.6 537.71A393.22 393.22 0 0 1 102.849 712a393 393 0 0 1 291.87-539.77v459.49h456.6z" p-id="13950"></path></svg>