<?xml version="1.0" standalone="no"?><!DOCTYPE svg PUBLIC "-//W3C//DTD SVG 1.1//EN" "http://www.w3.org/Graphics/SVG/1.1/DTD/svg11.dtd"><svg t="1562225608510" class="icon" viewBox="0 0 1024 1024" version="1.1" xmlns="http://www.w3.org/2000/svg" p-id="4838" xmlns:xlink="http://www.w3.org/1999/xlink" width="32" height="32"><defs><style type="text/css"></style></defs><path d="M493.4656 320.1536h100.9664v217.7536c0 16.7936 13.312 30.4128 29.7472 30.4128 16.4352 0 29.7472-13.6192 29.7472-30.4128V320.1536h100.864a18.3808 18.3808 0 0 0 15.8208-9.4208 19.2 19.2 0 0 0 0.1024-18.7392l-130.7648-231.2704A18.0736 18.0736 0 0 0 624.128 51.2a18.0736 18.0736 0 0 0-15.872 9.5232L477.696 291.9936a19.0464 19.0464 0 0 0-0.0512 18.7392 18.2272 18.2272 0 0 0 15.872 9.4208z" p-id="4839"></path><path d="M963.1232 617.4208l-116.2752-68.7104a18.0736 18.0736 0 0 0-18.3296 0.0512 18.944 18.944 0 0 0-9.216 16.1792v38.3488H229.9904c-54.272 0.1024-101.7344-37.376-115.3536-91.0336a122.7264 122.7264 0 0 1 57.344-136.96 117.0944 117.0944 0 0 1 144.0768 22.528c37.376 40.2432 43.3664 101.2224 14.592 148.2752a30.8224 30.8224 0 0 0 9.9328 41.1648c13.6192 8.704 31.5904 4.7616 40.4992-8.9088a185.6 185.6 0 0 0-21.9136-222.3616 175.616 175.616 0 0 0-216.064-33.8944c-71.168 40.3456-106.5472 124.8256-86.1184 205.3632 20.48 80.5376 91.648 136.704 173.0048 136.6528h589.4144v38.144c0 6.656 3.5328 12.8 9.216 16.1792 5.632 3.3792 12.5952 3.3792 18.2784 0.1024l116.2752-68.7104a18.6368 18.6368 0 0 0 9.3184-16.2304 18.6368 18.6368 0 0 0-9.3184-16.1792z m-338.944 114.7904a30.1056 30.1056 0 0 0-29.696 30.4128v179.7632c0 16.7936 13.312 30.4128 29.696 30.4128 16.4352 0 29.7472-13.6192 29.7472-30.4128v-179.712a30.1056 30.1056 0 0 0-29.696-30.464z m-245.504 0a30.1056 30.1056 0 0 0-29.7472 30.4128v179.7632c0 16.7936 13.312 30.4128 29.696 30.4128 16.4352 0 29.7984-13.6192 29.7984-30.4128v-179.712a30.1056 30.1056 0 0 0-29.7472-30.464z" p-id="4840"></path></svg>