<?xml version="1.0" standalone="no"?><!DOCTYPE svg PUBLIC "-//W3C//DTD SVG 1.1//EN" "http://www.w3.org/Graphics/SVG/1.1/DTD/svg11.dtd"><svg t="1560231351658" class="icon" style="" viewBox="0 0 1024 1024" version="1.1" xmlns="http://www.w3.org/2000/svg" p-id="14908" xmlns:xlink="http://www.w3.org/1999/xlink" width="32" height="32"><defs><style type="text/css"></style></defs><path d="M939 341q21 21 21 51v112q0 30-21 51t-51 21h8v312q0 30-21 51t-51 21H200q-30 0-51-21t-21-51V576h8q-30 0-51-21t-21-51V392q0-30 21-51t51-21h248q-53 0-90.5-37.5T256 192q0-53 37.5-90.5T384 64q53 0 90.5 37.5T512 192q0-53 37.5-90.5T640 64q53 0 90.5 37.5T768 192q0 53-37.5 90.5T640 320h248q30 0 51 21z m-463 51H136v112h340z m0 184H200v312h276z m-36-328v-56q0-23-16.5-39.5T384 136q-23 0-39.5 16.5T328 192q0 23 16.5 39.5T384 248z m448 144H548v112h340z m-64 184H548v312h276zM584 248h56q23 0 39.5-16.5T696 192q0-23-16.5-39.5T640 136q-23 0-39.5 16.5T584 192z" p-id="14909"></path></svg>