<?xml version="1.0" standalone="no"?><!DOCTYPE svg PUBLIC "-//W3C//DTD SVG 1.1//EN" "http://www.w3.org/Graphics/SVG/1.1/DTD/svg11.dtd"><svg t="1560231475173" class="icon" style="" viewBox="0 0 1024 1024" version="1.1" xmlns="http://www.w3.org/2000/svg" p-id="15593" xmlns:xlink="http://www.w3.org/1999/xlink" width="32" height="32"><defs><style type="text/css"></style></defs><path d="M37.67 512h1.92a35.89 35.89 0 0 0 16.72-4.8c0.76-0.45 1.49-0.92 2.21-1.4l157-90.64a36 36 0 0 0-36-62.36l-95.1 54.86a439.86 439.86 0 0 1 696.12-244.24 441 441 0 0 1 145.54 199.39 35.63 35.63 0 0 0 43 22.27l0.71-0.2a35.65 35.65 0 0 0 24-46.42A512.27 512.27 0 0 0 40.25 312.7 507.42 507.42 0 0 0 1.39 473.83 35.62 35.62 0 0 0 36.94 512z m981.85 20.89l0.37-0.53c-0.37-0.78-0.77-1.55-1.21-2.32a36 36 0 0 0-21.93-16.79 36.37 36.37 0 0 0-9.3-1.24h-1.12a35.41 35.41 0 0 0-22.89 8.36l-153.29 88.5A36 36 0 0 0 797 658a36 36 0 0 0 49.18 13.18l93.16-53.78A439.86 439.86 0 0 1 244 861 441.08 441.08 0 0 1 98.38 662.46a35.63 35.63 0 0 0-43.1-22.13l-0.7 0.2A35.65 35.65 0 0 0 30.7 687a512.27 512.27 0 0 0 953.05 24.3 507.42 507.42 0 0 0 38.86-161.13 35.37 35.37 0 0 0-3.09-17.28z m-379.61-33.32a36 36 0 0 0 0-72h-63l69.44-82.36a36 36 0 0 0-55.05-46.42l-79.27 94-79.27-94a36 36 0 0 0-55.05 46.42l69.44 82.36h-63a36 36 0 0 0 0 72H476v54.67h-91.91a36 36 0 1 0 0 72H476V702a35.86 35.86 0 0 0 7.15 21.54c0.35 0.46 0.7 0.91 1.07 1.36a35.94 35.94 0 0 0 24.1 12.91 35.73 35.73 0 0 0 7.36 0 35.94 35.94 0 0 0 24.1-12.91c0.37-0.45 0.72-0.9 1.07-1.36A35.86 35.86 0 0 0 548 702v-75.76h91.91a36 36 0 1 0 0-72H548v-54.67z" p-id="15594"></path></svg>