<?xml version="1.0" standalone="no"?><!DOCTYPE svg PUBLIC "-//W3C//DTD SVG 1.1//EN" "http://www.w3.org/Graphics/SVG/1.1/DTD/svg11.dtd"><svg t="1560231111821" class="icon" style="" viewBox="0 0 1024 1024" version="1.1" xmlns="http://www.w3.org/2000/svg" p-id="13812" xmlns:xlink="http://www.w3.org/1999/xlink" width="32" height="32"><defs><style type="text/css"></style></defs><path d="M512 569.23A252.62 252.62 0 0 0 690.63 138a252.62 252.62 0 1 0-357.26 357.24A251 251 0 0 0 512 569.23zM512 136c99.6 0 180.63 81 180.63 180.62S611.6 497.23 512 497.23s-180.63-81-180.63-180.63S412.4 136 512 136z m347.41 571A398.75 398.75 0 0 0 738.5 569.51a67 67 0 0 0-73.82-2.46 289.89 289.89 0 0 1-116.75 40.64L512 612.07l-35.93-4.38a289.8 289.8 0 0 1-116.74-40.64 67.06 67.06 0 0 0-73.83 2.46A398.75 398.75 0 0 0 164.59 707 392.28 392.28 0 0 0 119 890.23v2.6A67.26 67.26 0 0 0 186.19 960h651.62A67.26 67.26 0 0 0 905 892.83v-2.6A392.28 392.28 0 0 0 859.41 707z m-499.5 62a67.46 67.46 0 0 0 14.49 83.6l40.71 35.4H191a319.94 319.94 0 0 1 37.18-147.26 326.11 326.11 0 0 1 96.32-110.62 361.3 361.3 0 0 0 91.47 39z m64.69 31.84L512 645.19l87.4 155.66-87.4 76z m277.62-172.35zM608.89 888l40.71-35.41A67.46 67.46 0 0 0 664.09 769L608 669.14a361.3 361.3 0 0 0 91.47-39 326.11 326.11 0 0 1 96.32 110.62A319.94 319.94 0 0 1 833 888z" p-id="13813"></path></svg>