<?xml version="1.0" standalone="no"?><!DOCTYPE svg PUBLIC "-//W3C//DTD SVG 1.1//EN" "http://www.w3.org/Graphics/SVG/1.1/DTD/svg11.dtd"><svg t="1560230940510" class="icon" style="" viewBox="0 0 1024 1024" version="1.1" xmlns="http://www.w3.org/2000/svg" p-id="13324" xmlns:xlink="http://www.w3.org/1999/xlink" width="32" height="32"><defs><style type="text/css"></style></defs><path d="M339.85 696.52h344.79q36 0 36 36t-36 36H339.85q-36 0-36-36t36-36zM486.5 494a34.72 34.72 0 0 1-10.5-25.5v-281l-74 74q-11 11-26 11a35.85 35.85 0 0 1-36-36q0-15 11-26l135-136a38.8 38.8 0 0 1 52 0l135 136q11 11 11 26a35.85 35.85 0 0 1-36 36 35.52 35.52 0 0 1-26-11l-74-74v281a36.06 36.06 0 0 1-61.5 25.5z m432.37-141.48a35.18 35.18 0 0 0-34.87 30.6l-65.7 499.62c0 1.71-2.88 5.73-8.47 5.73H214.19c-5.59 0-8.47-4-8.47-5.73L140 383.12a35.18 35.18 0 0 0-34.89-30.6 35.19 35.19 0 0 0-34.76 40.64l76.7 489.58c0 42.38 30.05 76.74 67.12 76.74h595.64c37.07 0 67.12-34.36 67.12-76.74l76.7-489.58a35.19 35.19 0 0 0-34.76-40.64z" p-id="13325"></path></svg>