<?xml version="1.0" standalone="no"?><!DOCTYPE svg PUBLIC "-//W3C//DTD SVG 1.1//EN" "http://www.w3.org/Graphics/SVG/1.1/DTD/svg11.dtd"><svg t="1560231598396" class="icon" style="" viewBox="0 0 1024 1024" version="1.1" xmlns="http://www.w3.org/2000/svg" p-id="16004" xmlns:xlink="http://www.w3.org/1999/xlink" width="32" height="32"><defs><style type="text/css"></style></defs><path d="M622 676a35.85 35.85 0 1 0-25.5-10.5A34.72 34.72 0 0 0 622 676z m317-363q-21-21-51-21H136q-30 0-51 21t-21 51v524q0 30 21 51t51 21h752q30 0 51-21t21-51V364q0-30-21-51z m-51 369H522V570h366z m0-184H522q-30 0-51 21t-21 51v112q0 30 21 51t51 21h366v134H136V364h752zM263 136h498v156h72V136a51.46 51.46 0 0 0-1-10q-3-26-23.5-44A69.82 69.82 0 0 0 761 64H263a69.8 69.8 0 0 0-47.5 18Q195 100 192 126a50.7 50.7 0 0 0-1 10v156h72z" p-id="16005"></path></svg>