<?xml version="1.0" standalone="no"?><!DOCTYPE svg PUBLIC "-//W3C//DTD SVG 1.1//EN" "http://www.w3.org/Graphics/SVG/1.1/DTD/svg11.dtd"><svg class="icon" width="48px" height="48.00px" viewBox="0 0 1024 1024" version="1.1" xmlns="http://www.w3.org/2000/svg"><path d="M792.576 547.84a25.6 25.6 0 0 0 0-51.2H537.6V241.664a25.6 25.6 0 1 0-51.2 0v254.976H231.424a25.6 25.6 0 1 0 0 51.2h254.976V802.816a25.6 25.6 0 0 0 51.2 0V547.84zM51.2 648.6016a25.6 25.6 0 0 0 25.6-25.6v-81.92a25.6 25.6 0 0 0-51.2 0v81.92a25.6 25.6 0 0 0 25.6 25.6zM51.2 464.2816a25.6 25.6 0 0 0 25.6-25.6v-81.92a25.6 25.6 0 0 0-51.2 0v81.92a25.6 25.6 0 0 0 25.6 25.6zM127.7952 945.5616a99.5328 99.5328 0 0 1-43.008-47.3088 26.0096 26.0096 0 0 0-33.5872-13.312 25.1904 25.1904 0 0 0-13.312 33.5872A149.0944 149.0944 0 0 0 102.4 990.4128a26.0096 26.0096 0 0 0 12.288 3.072 25.6 25.6 0 0 0 22.528-13.312 24.576 24.576 0 0 0 3.072-12.0832 25.6 25.6 0 0 0-12.4928-22.528zM76.8 807.3216v-81.92a25.6 25.6 0 0 0-51.2 0v81.92a25.6 25.6 0 0 0 51.2 0zM832.512 87.04h17.408a96.6656 96.6656 0 0 1 48.7424 13.1072 23.9616 23.9616 0 0 0 12.9024 3.4816 25.3952 25.3952 0 0 0 24.7808-31.9488 24.7808 24.7808 0 0 0-11.8784-15.5648 146.6368 146.6368 0 0 0-74.5472-20.48h-17.408a25.6 25.6 0 0 0 0 51.2zM463.872 87.04h81.92a25.6 25.6 0 0 0 0-51.2h-81.92a25.6 25.6 0 0 0 0 51.2zM202.752 61.44a25.6 25.6 0 0 0-25.6-25.6h-3.2768a147.8656 147.8656 0 0 0-88.6784 29.4912 26.0096 26.0096 0 0 0-10.0352 20.48 23.7568 23.7568 0 0 0 5.12 15.1552 24.9856 24.9856 0 0 0 20.48 10.24 24.7808 24.7808 0 0 0 14.9504-4.9152 95.4368 95.4368 0 0 1 57.9584-20.48h3.072A25.6 25.6 0 0 0 202.752 61.44zM279.552 87.04h81.92a25.6 25.6 0 0 0 0-51.2h-81.92a25.6 25.6 0 1 0 0 51.2zM51.2 279.9616a25.6 25.6 0 0 0 25.6-25.6V184.32v-9.4208a25.6 25.6 0 0 0-50.5856-4.9152v84.3776a25.6 25.6 0 0 0 24.9856 25.6zM648.192 87.04h81.92a25.6 25.6 0 0 0 0-51.2h-81.92a25.6 25.6 0 0 0 0 51.2zM972.8 317.0304a25.6 25.6 0 0 0-25.6 25.6v81.92a25.6 25.6 0 1 0 51.2 0v-81.92a25.6 25.6 0 0 0-25.6-25.6zM972.8 685.6704a25.6 25.6 0 0 0-25.6 25.6v81.92a25.6 25.6 0 0 0 51.2 0v-81.92a25.6 25.6 0 0 0-25.6-25.6zM972.8 501.3504a25.6 25.6 0 0 0-25.6 25.6v81.92a25.6 25.6 0 1 0 51.2 0v-81.92a25.6 25.6 0 0 0-25.6-25.6zM995.1232 153.1904a26.0096 26.0096 0 0 0-30.5152-20.48 25.3952 25.3952 0 0 0-20.48 25.1904 23.552 23.552 0 0 0 0 5.3248 109.7728 109.7728 0 0 1 2.048 20.48v55.9104a25.6 25.6 0 1 0 51.2 0V184.32a155.8528 155.8528 0 0 0-2.2528-31.1296zM975.0528 870.6048a26.0096 26.0096 0 0 0-31.9488 17.2032 99.328 99.328 0 0 1-37.2736 51.6096 25.8048 25.8048 0 0 0-5.9392 35.6352 25.3952 25.3952 0 0 0 35.6352 6.144 150.528 150.528 0 0 0 56.7296-78.848 28.672 28.672 0 0 0 0-6.9632 25.8048 25.8048 0 0 0-17.2032-24.7808zM296.96 957.44h-81.92a25.6 25.6 0 0 0 0 51.2h81.92a25.6 25.6 0 0 0 0-51.2zM481.28 957.44h-81.92a25.6 25.6 0 0 0 0 51.2h81.92a25.6 25.6 0 0 0 0-51.2zM665.6 957.44h-81.92a25.6 25.6 0 0 0 0 51.2h81.92a25.6 25.6 0 0 0 0-51.2zM849.92 957.44h-81.92a25.6 25.6 0 0 0 0 51.2h81.92a25.6 25.6 0 0 0 0-51.2z" fill="#1296db" /></svg>