<?xml version="1.0" standalone="no"?><!DOCTYPE svg PUBLIC "-//W3C//DTD SVG 1.1//EN" "http://www.w3.org/Graphics/SVG/1.1/DTD/svg11.dtd"><svg t="1560231267621" class="icon" style="" viewBox="0 0 1024 1024" version="1.1" xmlns="http://www.w3.org/2000/svg" p-id="14497" xmlns:xlink="http://www.w3.org/1999/xlink" width="32" height="32"><defs><style type="text/css"></style></defs><path d="M512.205145 951.999898a440.129953 440.129953 0 0 1-171.259982-845.439909A439.859953 439.859953 0 0 1 952.205098 511.999945a35.999996 35.999996 0 0 0 71.999992 0 512.119945 512.119945 0 0 0-983.749894-199.299979 511.859945 511.859945 0 0 0 471.749949 711.299924 35.999996 35.999996 0 0 0 0-71.999992z m425.129954-111.199988a78.999992 78.999992 0 0 1-111.729988-111.729988l83.159991-83.149991a144.999984 144.999984 0 0 0-154.919983 215.729976l-100.059989 100.05999a35.999996 35.999996 0 0 0 50.909994 50.909994l100.05999-100.059989a144.999984 144.999984 0 0 0 215.729976-154.919983z m-261.219972-250.559973a35.999996 35.999996 0 0 0-35.999996-35.999997h-91.90999v-54.669994h91.90999a35.999996 35.999996 0 0 0 0-71.999992h-62.999993l69.439993-82.359991a35.999996 35.999996 0 0 0-55.049995-46.419995l-79.269991 93.99999-79.279992-93.99999a35.999996 35.999996 0 0 0-54.999994 46.419995l69.439993 82.359991h-62.999993a35.999996 35.999996 0 0 0 0 71.999992h91.80999v54.669994h-91.90999a35.999996 35.999996 0 1 0 0 71.999993h91.90999V701.999925a35.999996 35.999996 0 0 0 71.999992 0v-75.759992h91.90999a35.999996 35.999996 0 0 0 35.999996-35.999996z" p-id="14498"></path></svg>