<?xml version="1.0" standalone="no"?><!DOCTYPE svg PUBLIC "-//W3C//DTD SVG 1.1//EN" "http://www.w3.org/Graphics/SVG/1.1/DTD/svg11.dtd"><svg t="1560230782824" class="icon" style="" viewBox="0 0 1024 1024" version="1.1" xmlns="http://www.w3.org/2000/svg" p-id="11841" xmlns:xlink="http://www.w3.org/1999/xlink" width="32" height="32"><defs><style type="text/css"></style></defs><path d="M939.75 477.26L537.5 75a36.12 36.12 0 0 0-51 0L84.25 477.26a36 36 0 1 0 50.92 50.91L512 151.34l376.83 376.83a36 36 0 0 0 50.92-50.91zM827.72 603.28a36 36 0 0 0-36 36v248.24H230.43V639.28a36 36 0 0 0-72 0v248.24a72.08 72.08 0 0 0 72 72h561.29a72.08 72.08 0 0 0 72-72V639.28a36 36 0 0 0-36-36zM721.5 581.5A34.72 34.72 0 0 0 696 571H415l74-74q11-11 11-26a35.85 35.85 0 0 0-36-36q-15 0-26 11L302 581a38.8 38.8 0 0 0 0 52l136 135q11 11 26 11a35.85 35.85 0 0 0 36-36 35.52 35.52 0 0 0-11-26l-74-74h281a36.06 36.06 0 0 0 25.5-61.5z" p-id="11842"></path></svg>