<?xml version="1.0" standalone="no"?><!DOCTYPE svg PUBLIC "-//W3C//DTD SVG 1.1//EN" "http://www.w3.org/Graphics/SVG/1.1/DTD/svg11.dtd"><svg t="1560231427772" class="icon" style="" viewBox="0 0 1024 1024" version="1.1" xmlns="http://www.w3.org/2000/svg" p-id="15319" xmlns:xlink="http://www.w3.org/1999/xlink" width="32" height="32"><defs><style type="text/css"></style></defs><path d="M895.499996 288.000007v535.999995q0 30-20.5 50.999999t-50.499999 21h-56.999999v56q0 30-21 50.999999t-50 21h-495.999995q-29 0-50.499999-21t-21.5-50.999999V200.000008q0-29 21.5-50.499999t50.499999-21.5h55.999999V72.000009q0-30 21.5-50.999999t51.5-21h280.999997a72.929999 72.929999 0 0 1 29 6 12 12 0 0 1 3 2c0.66 0 2 0.67 4 2a125.189999 125.189999 0 0 1 15 11l213.999997 216.999998q20 20 20 49.999999z m-199.999998 607.999994h-365.999996q-30 0-51.5-21t-21.5-50.999999V200.000008h-55.999999v751.999993h494.999995z m127.999999-575.999994h-174.999998q-30 0-51.5-21t-21.5-50.999999V72.000009h-246.999997v751.999993h494.999995z m-218.999998 135.999999h-183.999998a36 36 0 1 1 0-72h183.999998a36 36 0 1 1 0 72z m127.999999 127.999998h-311.999997a36 36 0 1 1 0-71.999999h311.999997a36 36 0 1 1 0 71.999999z m-64 127.999999h-247.999997a36 36 0 1 1 0-71.999999h247.999997a36 36 0 1 1 0 71.999999z m-20.999999-463.999995h136.999998l-136.999998-137.999999z" p-id="15320"></path></svg>