<?xml version="1.0" standalone="no"?><!DOCTYPE svg PUBLIC "-//W3C//DTD SVG 1.1//EN" "http://www.w3.org/Graphics/SVG/1.1/DTD/svg11.dtd"><svg t="1561181975511" class="icon" viewBox="0 0 1024 1024" version="1.1" xmlns="http://www.w3.org/2000/svg" p-id="1485" xmlns:xlink="http://www.w3.org/1999/xlink" width="32" height="32"><defs><style type="text/css"></style></defs><path d="M951.92803 646.841418h-92.302699v-84.174281c0-38.293879-31.068619-69.362498-69.362498-69.362498H544.96525v-134.209208h92.302698c34.500617 0 62.679132-28.178515 62.679133-62.679132V87.967543c0-34.500617-28.178515-62.679132-62.679133-62.679132H387.635209c-34.500617 0-62.679132 28.178515-62.679132 62.679132V296.235668c0 34.500617 28.178515 62.679132 62.679132 62.679132h92.302699V493.124008H234.820956c-38.293879 0-69.362498 31.068619-69.362498 69.362498v93.74775H72.975128c-34.500617 0-62.679132 28.178515-62.679132 62.679133v208.448756c0 34.500617 28.178515 62.679132 62.679132 62.679132h249.632739c34.500617 0 62.679132-28.178515 62.679132-62.679132V718.913389c0-34.500617-28.178515-62.679132-62.679132-62.679133h-92.302699v-93.74775c0-2.34821 1.986947-4.335156 4.335157-4.335157h555.441876c2.34821 0 4.335156 1.986947 4.335157 4.335157V646.660787h-92.302699c-34.500617 0-62.679132 28.178515-62.679132 62.679132v208.448756c0 34.500617 28.178515 62.679132 62.679132 62.679132H951.92803c34.500617 0 62.679132-28.178515 62.679132-62.679132V709.339919c0-34.500617-28.178515-62.498501-62.679132-62.498501zM390.16405 90.315752h244.755689v203.571706H390.16405V90.315752z m-69.904392 834.517552H75.503969V721.261598h244.755689V924.833304z m629.320162-9.57347H704.6435V711.86876h244.755689v203.391074z" p-id="1486"></path></svg>