<?xml version="1.0" standalone="no"?><!DOCTYPE svg PUBLIC "-//W3C//DTD SVG 1.1//EN" "http://www.w3.org/Graphics/SVG/1.1/DTD/svg11.dtd"><svg t="1560231027641" class="icon" style="" viewBox="0 0 1024 1024" version="1.1" xmlns="http://www.w3.org/2000/svg" p-id="13598" xmlns:xlink="http://www.w3.org/1999/xlink" width="32" height="32"><defs><style type="text/css"></style></defs><path d="M387 193h251a72 72 0 0 0 72-72V72a72 72 0 0 0-72-72H387a72 72 0 0 0-72 72v49a72 72 0 0 0 72 72z m0-121h251v49H387z m438-13.6h-29a36 36 0 1 0 0 72h28V952H200V130.4h28a36 36 0 0 0 0-72h-29a71 71 0 0 0-71 71V953a71 71 0 0 0 71 71h626a71 71 0 0 0 71-71V129.4a71 71 0 0 0-71-71zM318.45 535.62H705.5a36 36 0 0 0 25.5-61.46L614.86 358A36 36 0 1 0 564 408.93l54.69 54.69H318.45a36 36 0 1 0 0 72zM409.14 758a36 36 0 0 0 50.91 0 36 36 0 0 0 0-50.91l-54.69-54.69h300.19a36 36 0 0 0 0-72h-387A35.89 35.89 0 0 0 293 590.92a36 36 0 0 0 0 50.91z" p-id="13599"></path></svg>