<?xml version="1.0" standalone="no"?><!DOCTYPE svg PUBLIC "-//W3C//DTD SVG 1.1//EN" "http://www.w3.org/Graphics/SVG/1.1/DTD/svg11.dtd"><svg t="1560231186342" class="icon" style="" viewBox="0 0 1024 1024" version="1.1" xmlns="http://www.w3.org/2000/svg" p-id="14086" xmlns:xlink="http://www.w3.org/1999/xlink" width="32" height="32"><defs><style type="text/css"></style></defs><path d="M947.18 898.07q-12.25-10.5-29.79-10.5H136.55V106.39q0-17.48-10.5-29.72t-25.5-12.24q-15 0-25.5 12.24t-10.5 29.72v811.22c0 1.13 0 2.23 0.11 3.33-0.07 0.86-0.11 1.74-0.11 2.63q0 14.32 11.21 24.55 10.29 11.43 24.79 11.45c0.9 0 1.79-0.05 2.67-0.12 1.11 0.07 2.24 0.12 3.39 0.12h810.78q17.54 0 29.79-10.5t12.27-25.5q0-15-12.27-25.5z m-625.63-70.5a35.85 35.85 0 0 0 36-36v-371a36 36 0 1 0-72 0v371a35.85 35.85 0 0 0 36 36z m211 0a35.85 35.85 0 0 0 36-36v-245a34 34 0 0 0-11-25.5q-11-10.5-25-10.5a35.85 35.85 0 0 0-36 36v245a35.85 35.85 0 0 0 36 36z m212 0a35.85 35.85 0 0 0 36-36v-501a36 36 0 1 0-72 0v501a35.85 35.85 0 0 0 36 36z" p-id="14087"></path></svg>