<?xml version="1.0" standalone="no"?><!DOCTYPE svg PUBLIC "-//W3C//DTD SVG 1.1//EN" "http://www.w3.org/Graphics/SVG/1.1/DTD/svg11.dtd"><svg t="1560230896617" class="icon" style="" viewBox="0 0 1024 1024" version="1.1" xmlns="http://www.w3.org/2000/svg" p-id="12559" xmlns:xlink="http://www.w3.org/1999/xlink" width="32" height="32"><defs><style type="text/css"></style></defs><path d="M374.15 837.52a65.48 65.48 0 1 0 32.74 56.71 65.73 65.73 0 0 0-32.74-56.71z m434.98 0a65.48 65.48 0 1 0 32.74 56.71 65.73 65.73 0 0 0-32.74-56.71z m188.19-593.2l-0.26-0.31-0.3-0.28c-24-28.08-82.58-27.9-87.32-27.27H823.6a36 36 0 0 0 0 72h1.53l92.2-1s17 0.14 26.55 8.39 10.75 25.74 7.41 37.73c-3.17 11.41-50.16 128.86-86.86 206.82-122 1.78-536.15 2.93-578.08 3h-0.67l-44.92-255h111.37a36 36 0 0 0 1-72H210l-0.3-0.43a173.06 173.06 0 0 0-27.48-30.6l-0.12-0.1-0.17-0.14a106.12 106.12 0 0 0-64.49-22q-3.75 0-7.58 0.27H37a37 37 0 1 0 0 74h80.47a35.39 35.39 0 0 1 20.58 6.81l0.07 0.05 0.06 0.06a107 107 0 0 1 22.32 33.33c6.73 15.83 8.51 39 8.51 39 18.78 93 36.44 194.08 49.42 277.86 3.56 22.94 5.5 39.61 5.73 41.72v0.12c6.68 33 16.87 64.3 39.89 88.11a144 144 0 0 0 86.75 42.83h0.35l474.15-0.89v-0.18a36 36 0 0 0-2.14-71.9c-1.26 0-2.5 0.07-3.73 0.19l-11.61 0.31c-56.62-0.22-439.79 0.52-453.33-0.27-14-1.17-47.32-11.68-58-67.58a11.53 11.53 0 0 1-0.16-1.3l-0.68-10.67 596.5-3.24a35.87 35.87 0 0 0 14.77-3.18l0.37-0.16 0.85-0.41 0.89-0.45 0.4-0.22a36.07 36.07 0 0 0 17.82-23.14l92.09-234.9a113 113 0 0 0-22.02-104.98zM463.61 136.3h248a36 36 0 0 0 0-72h-248a36 36 0 1 0 0 72z m0 126h248a36 36 0 0 0 0-72h-248a36 36 0 0 0 0 72z" p-id="12560"></path></svg>