<?xml version="1.0" standalone="no"?><!DOCTYPE svg PUBLIC "-//W3C//DTD SVG 1.1//EN" "http://www.w3.org/Graphics/SVG/1.1/DTD/svg11.dtd"><svg t="1560231240629" class="icon" style="" viewBox="0 0 1024 1024" version="1.1" xmlns="http://www.w3.org/2000/svg" p-id="14360" xmlns:xlink="http://www.w3.org/1999/xlink" width="32" height="32"><defs><style type="text/css"></style></defs><path d="M512 0L64.322 153.77v401.145c0 31.541 2.359 69.959 19.849 116.042 18.349 48.292 50.34 96.603 97.862 147.713 23.497 26.305 71.538 69.13 166.903 123.868 56.736 32.55 107.876 56.587 133.301 68.01L512.16 1024l29.782-13.772c41.976-19.409 91.847-45.813 136.83-72.437 71.718-42.446 129.634-84.72 163.095-119.04l2.398-2.58c77.635-87.948 115.383-173.358 115.383-261.256V153.77z m375.72 554.915c0 69.57-31.851 139.448-97.363 213.625-29.163 29.892-81.792 67.96-148.203 107.317-42.975 25.445-90.507 50.61-130.384 69.05-24.226-10.884-72.957-33.78-126.985-64.793-87.08-49.97-129.155-87.079-149.123-109.416l-0.94-0.999c-41.045-44.164-68.29-84.81-83.28-124.277-13.323-35.07-15.162-64.213-15.162-90.487V205.18L512 76.085 887.72 205.18z m-247.885-0.7H547.98v-54.638h91.856a35.979 35.979 0 0 0 0-71.958h-62.963l69.4-82.311a35.979 35.979 0 0 0-55.018-46.393L512.03 392.86l-79.224-93.945a35.979 35.979 0 0 0-55.017 46.393l69.399 82.311h-62.963a35.979 35.979 0 0 0 0 71.958h91.796v54.638h-91.856a35.979 35.979 0 1 0 0 71.958h91.856v75.716a35.979 35.979 0 0 0 71.958 0v-75.716h91.856a35.979 35.979 0 1 0 0-71.958z" p-id="14361"></path></svg>