<?xml version="1.0" standalone="no"?><!DOCTYPE svg PUBLIC "-//W3C//DTD SVG 1.1//EN" "http://www.w3.org/Graphics/SVG/1.1/DTD/svg11.dtd"><svg t="1560231403958" class="icon" style="" viewBox="0 0 1024 1024" version="1.1" xmlns="http://www.w3.org/2000/svg" p-id="15182" xmlns:xlink="http://www.w3.org/1999/xlink" width="32" height="32"><defs><style type="text/css"></style></defs><path d="M326.5 702.5h371.07a36 36 0 1 0 0-72H326.5a36 36 0 0 0 0 72z m0 137.5h371.07a36 36 0 1 0 0-72H326.5a36 36 0 0 0 0 72zM825 62.16h-18a36 36 0 0 0 0 72h17v817.61H200V134.16h17a36 36 0 0 0 0-72h-18a71 71 0 0 0-71 71v819.61a71 71 0 0 0 71 71h626a71 71 0 0 0 71-71V133.16a71 71 0 0 0-71-71zM386 193.23h251a72 72 0 0 0 72-72v-49a72 72 0 0 0-72-72H386a72 72 0 0 0-72 72v49a72 72 0 0 0 72 72z m0-121h251v49H386z" p-id="15183"></path></svg>