<?xml version="1.0" standalone="no"?><!DOCTYPE svg PUBLIC "-//W3C//DTD SVG 1.1//EN" "http://www.w3.org/Graphics/SVG/1.1/DTD/svg11.dtd"><svg t="1560231214502" class="icon" style="" viewBox="0 0 1024 1024" version="1.1" xmlns="http://www.w3.org/2000/svg" p-id="14223" xmlns:xlink="http://www.w3.org/1999/xlink" width="32" height="32"><defs><style type="text/css"></style></defs><path d="M939 109q-21-21-51-21H136q-30 0-51 21t-21 51v559q0 30 21 51t51 21h752q30 0 51-21t21-51V160q0-30-21-51z m-51 610l-752 1V160h752z m36 145H100a36 36 0 1 0 0 72h824a36 36 0 1 0 0-72zM235.05 597.41a36.08 36.08 0 0 0 51 0.76l130.45-126.6a36.1 36.1 0 0 1 51 0.76l36.5 37.53-0.46 0.45 25.13 25.89a36.09 36.09 0 0 0 51 0.77l208.52-202.35a36.09 36.09 0 0 0 0.76-51 36.08 36.08 0 0 0-51-0.76L581.56 434.58a36.09 36.09 0 0 1-51-0.77l-36.46-37.52 0.12-0.12-25.13-25.9a36.09 36.09 0 0 0-51-0.76L235.81 546.38a36.09 36.09 0 0 0-0.76 51z" p-id="14224"></path></svg>