<?xml version="1.0" standalone="no"?><!DOCTYPE svg PUBLIC "-//W3C//DTD SVG 1.1//EN" "http://www.w3.org/Graphics/SVG/1.1/DTD/svg11.dtd"><svg t="1560230995911" class="icon" style="" viewBox="0 0 1024 1024" version="1.1" xmlns="http://www.w3.org/2000/svg" p-id="13461" xmlns:xlink="http://www.w3.org/1999/xlink" width="32" height="32"><defs><style type="text/css"></style></defs><path d="M941.25 212.81L836 91.89c-15.65-18-39-28.39-63.64-28.39H251.68c-24.64 0-48 10.42-63.64 28.39L82.75 212.81A75.26 75.26 0 0 0 64 262.24v620.45c0 43 36.89 77.81 82.39 77.81h731.22c45.5 0 82.39-34.84 82.39-77.81V262.24a75.26 75.26 0 0 0-18.75-49.43z m-698.91-73.64c1.95-2.23 5.61-3.67 9.34-3.67h520.64c3.73 0 7.39 1.44 9.34 3.67l80.39 92.33H162zM888 312.27v570.42c0 1.74-3.54 5.81-10.39 5.81H146.39c-6.85 0-10.39-4.07-10.39-5.81V303.5h752zM318.45 582H705.5a35.89 35.89 0 0 0 25.5-10.5 36 36 0 0 0 0-50.91L614.86 404.45a36 36 0 0 0-50.91 0 36 36 0 0 0 0 50.91L618.64 510H318.45a36 36 0 0 0-36 36 36 36 0 0 0 36 36z m387.1 44.8h-387A35.86 35.86 0 0 0 293 637.35a36 36 0 0 0 0 50.91L409.14 804.4a36 36 0 0 0 50.91 0 36 36 0 0 0 0-50.91l-54.69-54.69h300.19a36 36 0 0 0 36-36 36 36 0 0 0-36-36z" p-id="13462"></path></svg>