<?xml version="1.0" standalone="no"?><!DOCTYPE svg PUBLIC "-//W3C//DTD SVG 1.1//EN" "http://www.w3.org/Graphics/SVG/1.1/DTD/svg11.dtd"><svg t="1560231317563" class="icon" style="" viewBox="0 0 1024 1024" version="1.1" xmlns="http://www.w3.org/2000/svg" p-id="14771" xmlns:xlink="http://www.w3.org/1999/xlink" width="32" height="32"><defs><style type="text/css"></style></defs><path d="M267 64C155.35 64 64 155.35 64 267s91.35 203 203 203h203V267c0-111.65-91.35-203-203-203z m131 334H267a130.76 130.76 0 1 1 131-131zM757 64c-111.65 0-203 91.35-203 203v203h203c111.65 0 203-91.35 203-203S868.65 64 757 64z m92.46 295.46A130.05 130.05 0 0 1 757 398H626V267a131 131 0 1 1 223.46 92.46zM64 757c0 111.65 91.35 203 203 203s203-91.35 203-203V554H267c-111.65 0-203 91.35-203 203z m334 0a130.76 130.76 0 1 1-131-131h131z m359-203H554v203c0 111.65 91.35 203 203 203s203-91.35 203-203-91.35-203-203-203z m92.46 295.46A131 131 0 0 1 626 757V626h131a130.76 130.76 0 0 1 92.46 223.46z" p-id="14772"></path></svg>