<?xml version="1.0" standalone="no"?><!DOCTYPE svg PUBLIC "-//W3C//DTD SVG 1.1//EN" "http://www.w3.org/Graphics/SVG/1.1/DTD/svg11.dtd"><svg t="1560231379894" class="icon" style="" viewBox="0 0 1024 1024" version="1.1" xmlns="http://www.w3.org/2000/svg" p-id="15045" xmlns:xlink="http://www.w3.org/1999/xlink" width="32" height="32"><defs><style type="text/css"></style></defs><path d="M871.5 19A69.82 69.82 0 0 0 824 1H200a69.8 69.8 0 0 0-47.5 18Q132 37 129 63a50.7 50.7 0 0 0-1 10v878q0 30 21 51t51 21h624q30 0 51-21t21-51V73a51.46 51.46 0 0 0-1-10q-3-26-23.5-44zM824 951H200V73h624zM352 767.32h-64a32 32 0 0 0 0 64h64a32 32 0 0 0 0-64z m192 0h-64a32 32 0 0 0 0 64h64a32 32 0 0 0 0-64z m105.5 9.5a32 32 0 0 0 22.5 54.5h64a32 32 0 0 0 0-64h-64a30.75 30.75 0 0 0-22.5 9.5z m26.41-277.58a36 36 0 0 0-36-36H548v-54.67h91.91a36 36 0 0 0 0-72h-63l69.44-82.36a36 36 0 0 0-55.05-46.42l-79.27 94-79.27-94a36 36 0 0 0-55.05 46.42l69.44 82.36h-63a36 36 0 0 0 0 72H476v54.67h-91.91a36 36 0 1 0 0 72H476V611a36 36 0 0 0 72 0v-75.76h91.91a36 36 0 0 0 36-36z" p-id="15046"></path></svg>