<?xml version="1.0" standalone="no"?><!DOCTYPE svg PUBLIC "-//W3C//DTD SVG 1.1//EN" "http://www.w3.org/Graphics/SVG/1.1/DTD/svg11.dtd"><svg t="1560231295671" class="icon" style="" viewBox="0 0 1024 1024" version="1.1" xmlns="http://www.w3.org/2000/svg" p-id="14634" xmlns:xlink="http://www.w3.org/1999/xlink" width="32" height="32"><defs><style type="text/css"></style></defs><path d="M915.77 85.7H767a36 36 0 0 0 0 72h65.23L572.75 417.18 371.09 215.51a36 36 0 0 0-50.92 0L294.72 241l-212 212a36 36 0 0 0 0 50.91 36 36 0 0 0 50.91 0l212-212 201.98 201.95a36 36 0 0 0 50.91 0L624 468.41l-0.31-0.32 255.7-255.72v58.16a36 36 0 0 0 36 36 36 36 0 0 0 36-36V157.7h0.38v-36a36 36 0 0 0-36-36zM193.27 665a36 36 0 0 0-36 36v201.3a36 36 0 0 0 36 36 36 36 0 0 0 36-36V701a36 36 0 0 0-36-36z m226.21-167.12a36 36 0 0 0-36 36V902.3a36 36 0 0 0 36 36 36 36 0 0 0 36-36V533.88a36 36 0 0 0-36-36zM645.7 609a36 36 0 0 0-36 36v257.3a36 36 0 0 0 36 36 36 36 0 0 0 36-36V645a36 36 0 0 0-36-36z m226.22-112.27q36 0 36 36V902.3q0 36-36 36t-36-36V532.73q0-36 36-36z" p-id="14635"></path></svg>