<?xml version="1.0" standalone="no"?><!DOCTYPE svg PUBLIC "-//W3C//DTD SVG 1.1//EN" "http://www.w3.org/Graphics/SVG/1.1/DTD/svg11.dtd"><svg t="1560231451991" class="icon" style="" viewBox="0 0 1024 1024" version="1.1" xmlns="http://www.w3.org/2000/svg" p-id="15456" xmlns:xlink="http://www.w3.org/1999/xlink" width="32" height="32"><defs><style type="text/css"></style></defs><path d="M887.77 135.89v265h-266v-265h266m0-72h-266a72 72 0 0 0-72 72v265a72 72 0 0 0 72 72h266a72 72 0 0 0 72-72v-265a72 72 0 0 0-72-72z m-485.54 72v412.63h-266V135.89h266m0-72h-266a72 72 0 0 0-72 72v412.63a72 72 0 0 0 72 72h266a72 72 0 0 0 72-72V135.89a72 72 0 0 0-72-72z m485.54 559.22v265h-266v-265h266m0-72h-266a72 72 0 0 0-72 72v265a72 72 0 0 0 72 72h266a72 72 0 0 0 72-72v-265a72 72 0 0 0-72-72zM402.23 764.48v123.63h-266V764.48h266m0-72h-266a72 72 0 0 0-72 72v123.63a72 72 0 0 0 72 72h266a72 72 0 0 0 72-72V764.48a72 72 0 0 0-72-72z" p-id="15457"></path></svg>