<?xml version="1.0" standalone="no"?><!DOCTYPE svg PUBLIC "-//W3C//DTD SVG 1.1//EN" "http://www.w3.org/Graphics/SVG/1.1/DTD/svg11.dtd"><svg t="1560231550357" class="icon" style="" viewBox="0 0 1025 1024" version="1.1" xmlns="http://www.w3.org/2000/svg" p-id="15867" xmlns:xlink="http://www.w3.org/1999/xlink" width="32.03125" height="32"><defs><style type="text/css"></style></defs><path d="M375.64 837.86a65.39 65.39 0 1 0 32.74 56.65 65.62 65.62 0 0 0-32.74-56.65z m434.98 0a65.39 65.39 0 1 0 32.74 56.65 65.62 65.62 0 0 0-32.74-56.65z m188.19-592.73l-0.26-0.31-0.3-0.27c-24-28.06-82.58-27.88-87.32-27.25h-85.84a36 36 0 1 0 0 71.94h1.53l92.2-1s17 0.14 26.55 8.38 10.75 25.72 7.41 37.7c-3.17 11.4-50.16 128.76-86.86 206.66-122 1.77-536.15 2.92-578.08 3h-0.67l-44.92-254.73h111.37a36 36 0 0 0 1-71.92H211.49l-0.3-0.44a173.22 173.22 0 0 0-27.48-30.57l-0.12-0.1-0.17-0.14a106.17 106.17 0 0 0-64.49-22q-3.75 0-7.58 0.27H38.49a37 37 0 1 0 0 73.94h80.47a35.45 35.45 0 0 1 20.58 6.8h0.07l0.06 0.06a107 107 0 0 1 22.32 33.3c6.73 15.83 8.51 39 8.51 39 18.78 93 36.44 193.93 49.42 277.64 3.56 22.92 5.5 39.57 5.73 41.69v0.22c6.68 33 16.87 64.24 39.89 88a144.12 144.12 0 0 0 86.75 42.8h0.35l474.15-0.89v-0.18a36 36 0 0 0-2.14-71.84c-1.26 0-2.5 0.07-3.73 0.19l-11.61 0.31c-56.62-0.22-439.79 0.52-453.33-0.27-14-1.17-47.32-11.67-58-67.53a11.36 11.36 0 0 1-0.16-1.29l-0.68-10.66 596.5-3.25a35.87 35.87 0 0 0 14.77-3.17l0.37-0.17 0.85-0.4 0.89-0.46 0.4-0.21a36.06 36.06 0 0 0 17.82-23.12l92.09-234.71a112.85 112.85 0 0 0-22.02-105.02z m-528.15 58.93a36 36 0 0 0 0 72h78.44v64a36 36 0 1 0 72 0v-64h78.45a36 36 0 0 0 0-72H621.1v-41.33h78.45a36 36 0 0 0 0-72H651.3l56.88-67.46a36 36 0 1 0-55-46.41l-68 80.69-68-80.69a36 36 0 1 0-55 46.41l56.87 67.46h-48.39a36 36 0 1 0 0 72h78.44v41.33z" p-id="15868"></path></svg>